<?xml version="1.0" standalone="no"?>
<!DOCTYPE svg PUBLIC "-//W3C//DTD SVG 20010904//EN"
 "http://www.w3.org/TR/2001/REC-SVG-20010904/DTD/svg10.dtd">
<svg version="1.0" xmlns="http://www.w3.org/2000/svg"
 width="1440.000000pt" height="600.000000pt" viewBox="0 0 1440.000000 600.000000"
 preserveAspectRatio="xMidYMid meet">
<metadata>
Created by potrace 1.16, written by Peter Selinger 2001-2019
</metadata>
<g transform="translate(0.000000,600.000000) scale(0.100000,-0.100000)"
fill="#000000" stroke="none">
<path d="M2955 4975 c-388 -60 -730 -213 -1023 -459 -95 -79 -272 -260 -335
-343 l-48 -63 773 1 773 1 -355 52 c-195 29 -372 56 -393 60 l-38 7 38 31
c153 124 408 261 608 327 220 73 299 85 555 85 516 -1 779 -88 1227 -410 78
-57 143 -99 143 -94 0 13 -49 70 -149 174 -305 315 -678 522 -1101 611 -110
24 -153 27 -355 30 -163 3 -256 0 -320 -10z"/>
<path d="M6920 3491 l0 -1031 458 0 c347 0 480 4 552 15 234 35 410 124 562
283 117 122 189 257 239 447 31 116 37 347 14 486 -60 360 -275 640 -579 754
-181 68 -182 68 -738 72 l-508 4 0 -1030z m996 631 c114 -30 182 -69 265 -152
85 -84 135 -174 165 -295 24 -96 24 -287 0 -375 -60 -223 -207 -374 -422 -435
-47 -14 -116 -18 -331 -22 l-273 -5 0 651 0 651 263 0 c223 0 274 -3 333 -18z"/>
<path d="M9000 4230 c0 -159 2 -290 5 -290 3 0 91 43 195 95 l190 95 580 0
580 0 0 195 0 195 -775 0 -775 0 0 -290z"/>
<path d="M10840 3490 l0 -1030 195 0 195 0 0 380 0 380 515 0 515 0 0 185 0
185 -515 0 -515 0 0 275 0 275 545 0 545 0 0 190 0 190 -740 0 -740 0 0 -1030z"/>
<path d="M12610 3490 l0 -1030 195 0 195 0 0 1030 0 1030 -195 0 -195 0 0
-1030z"/>
<path d="M1409 3963 c126 -225 1191 -2058 1197 -2060 5 -2 140 224 301 502
l292 506 -308 532 -307 532 -592 3 c-563 2 -592 1 -583 -15z m1096 -724 c99
-171 181 -317 183 -323 1 -7 -16 -45 -39 -84 l-42 -72 -117 202 c-64 112 -166
290 -228 396 l-111 192 87 0 88 0 179 -311z"/>
<path d="M2670 3974 c0 -10 564 -984 570 -984 5 0 561 960 568 980 2 6 -210
10 -567 10 -314 0 -571 -3 -571 -6z"/>
<path d="M3272 2898 l-623 -1081 122 -213 c68 -118 126 -214 129 -214 3 0 145
242 316 538 l311 537 319 3 319 3 122 212 122 212 -314 5 -314 5 186 323 186
322 317 0 317 0 122 210 c66 115 121 212 121 215 0 3 -255 5 -567 5 l-568 -1
-623 -1081z"/>
<path d="M4715 3178 c-460 -785 -427 -728 -417 -728 4 0 122 142 262 316 174
216 256 311 261 302 4 -8 13 -77 19 -154 24 -311 -36 -649 -163 -918 -110
-232 -257 -439 -441 -621 -211 -210 -412 -332 -745 -450 -8 -3 -12 -8 -9 -10
3 -3 56 4 119 14 476 83 867 312 1224 718 234 267 380 595 442 995 21 139 23
450 4 588 -17 122 -65 315 -102 408 -28 69 -77 172 -82 172 -1 0 -168 -285
-372 -632z"/>
<path d="M1326 3698 c-63 -143 -110 -356 -127 -576 -26 -324 33 -684 162 -997
222 -539 647 -933 1214 -1123 144 -49 332 -92 434 -99 l75 -6 -21 34 c-12 19
-188 322 -393 674 -205 352 -374 642 -376 644 -23 24 33 -120 276 -716 6 -15
6 -23 0 -23 -6 0 -65 27 -131 61 -685 343 -1053 876 -1111 1607 -12 153 -2
399 22 522 4 25 6 47 4 49 -2 2 -15 -21 -28 -51z"/>
<path d="M9188 3574 l-188 -94 0 -510 0 -510 775 0 775 0 0 195 0 195 -575 0
-575 0 0 198 0 198 55 27 55 27 495 0 495 0 0 185 0 185 -562 -1 -563 0 -187
-95z"/>
<path d="M3268 1847 c-168 -292 -308 -537 -310 -543 -4 -15 234 -434 245 -431
5 1 193 322 418 712 226 391 421 729 435 753 l25 42 -253 0 -253 -1 -307 -532z"/>
<path d="M7069 1916 c-84 -30 -119 -76 -119 -157 0 -104 54 -149 207 -176 124
-21 166 -53 142 -107 -35 -76 -194 -73 -260 5 l-25 31 -45 -22 c-24 -12 -46
-24 -48 -26 -2 -2 8 -23 23 -48 47 -81 182 -123 308 -97 112 24 168 86 168
185 0 112 -48 154 -212 182 -103 18 -123 25 -138 54 -22 41 38 90 107 90 34 0
103 -31 121 -53 13 -15 18 -14 63 9 41 20 48 28 40 42 -18 33 -67 71 -110 87
-52 18 -172 19 -222 1z"/>
<path d="M8630 1903 c1 -4 47 -134 104 -288 l103 -280 55 -3 c54 -3 55 -2 66
30 6 18 33 96 60 172 l49 140 18 -55 c9 -30 38 -107 63 -171 l45 -118 53 0
c30 0 54 2 54 4 0 2 45 128 100 281 55 153 100 282 100 286 0 5 -29 9 -64 9
l-65 0 -56 -177 c-31 -98 -59 -188 -63 -200 -5 -17 -24 28 -76 177 l-68 200
-42 0 -42 0 -64 -195 c-35 -107 -67 -192 -70 -189 -3 3 -32 89 -65 192 l-61
187 -67 3 c-37 2 -67 -1 -67 -5z"/>
<path d="M10803 1637 c-67 -149 -125 -280 -128 -289 -6 -16 0 -18 58 -18 l65
0 23 55 24 55 146 0 145 0 23 -55 23 -55 64 0 c35 0 64 3 64 7 0 4 -57 135
-127 290 l-127 283 -65 0 -66 0 -122 -273z m235 26 c23 -54 42 -101 42 -105 0
-5 -41 -8 -91 -8 -83 0 -91 2 -85 18 20 54 82 192 87 192 3 0 25 -44 47 -97z"/>
<path d="M12510 1620 l0 -290 60 0 60 0 0 84 0 84 123 4 c111 3 127 5 159 27
64 45 83 84 83 176 0 72 -3 86 -27 122 -47 72 -86 83 -286 83 l-172 0 0 -290z
m338 155 c36 -30 45 -69 27 -112 -19 -45 -42 -53 -149 -53 l-96 0 0 95 0 95
94 0 c86 0 97 -2 124 -25z"/>
</g>
</svg>
