<?xml version="1.0" standalone="no"?>
<!DOCTYPE svg PUBLIC "-//W3C//DTD SVG 20010904//EN"
 "http://www.w3.org/TR/2001/REC-SVG-20010904/DTD/svg10.dtd">
<svg version="1.0" xmlns="http://www.w3.org/2000/svg"
 width="49.000000pt" height="50.000000pt" viewBox="0 0 49.000000 50.000000"
 preserveAspectRatio="xMidYMid meet">
<metadata>
Created by potrace 1.16, written by Peter Selinger 2001-2019
</metadata>
<g transform="translate(0.000000,50.000000) scale(0.100000,-0.100000)"
fill="#000000" stroke="none">
<path d="M148 482 c-39 -18 -113 -80 -105 -88 2 -3 47 -3 98 -2 85 3 90 4 50
12 l-44 9 29 15 c72 38 165 34 225 -8 43 -31 58 -23 19 11 -79 68 -191 89
-272 51z"/>
<path d="M20 376 c0 -8 4 -17 9 -20 5 -3 22 -30 39 -59 16 -28 40 -70 53 -91
13 -22 18 -36 11 -32 -17 10 -15 1 8 -45 l21 -40 -28 15 c-65 33 -106 106
-107 189 0 31 -4 57 -7 57 -13 0 -19 -32 -19 -93 1 -130 85 -234 207 -252 l38
-6 50 88 c27 48 49 90 48 93 0 3 8 14 19 25 16 17 18 17 13 2 -12 -29 3 -19
30 20 l25 38 0 -40 c0 -81 -68 -178 -137 -200 -24 -7 -32 -25 -10 -25 6 0 30
9 53 19 105 48 159 137 152 253 -5 94 -18 103 -56 36 -29 -51 -34 -54 -73 -56
-22 -2 -39 1 -37 5 29 61 31 63 68 63 29 0 41 6 54 25 9 13 16 27 16 29 0 3
-95 5 -210 5 -116 0 -215 3 -220 6 -6 3 -10 -1 -10 -9z"/>
</g>
</svg>
